# xmcd
#
# Track frame offsets:
#	150
#	13684
#	24505
#	35649
#	47683
#	57870
#	69244
#	81823
#	94778
#	107399
#	119567
#	129959
#	142893
#	155349
#	168180
#	179630
#	191375
#	202708
#	214670
#	225774
#	237343
#	249893
#
# Disc length: 3491 seconds
#
# Revision: 0
# Processed by: cddbd v1.4PL0 Copyright (c) Steve Scherf et al.
# Submitted via: dBpowerAMP V4.0
#
DISCID=0f0da116
DTITLE=Lightnin' Hopkins - Feel So Bad
DYEAR=1900
DGENRE=Blues
TTITLE0=Katie Mae
TTITLE1=Short Haired Woman
TTITLE2=Big Mama Jump
TTITLE3=Feel So Bad
TTITLE4=Down Baby
TTITLE5=Let Me Play With Your Poodle
TTITLE6=Fast-Mail Rambler
TTITLE7=Thinkin' And Worryin'
TTITLE8=Picture On The Wall
TTITLE9=Sugar On My Mind
TTITLE10=Lightnin's Boogie
TTITLE11=Whiskey Headed Woman
TTITLE12=Shining Moon
TTITLE13=Baby Please Don't Go
TTITLE14=Mercy
TTITLE15=What Can It Be
TTITLE16=Appetite Blues
TTITLE17=Tim Moores Farm
TTITLE18=Mad With You
TTITLE19=T Model Blues
TTITLE20=Lightning Boogie
TTITLE21=Death Bells
EXTD=Released By Indigo Recprdings Inc. ©2000. Featuring\nPiano From Wilson 'Thunder' Smith on tracks 1, 4 and 6.\n\nSent By Josh
EXTT0=
EXTT1=
EXTT2=
EXTT3=
EXTT4=
EXTT5=
EXTT6=
EXTT7=
EXTT8=
EXTT9=
EXTT10=
EXTT11=
EXTT12=
EXTT13=
EXTT14=
EXTT15=
EXTT16=
EXTT17=
EXTT18=
EXTT19=
EXTT20=
EXTT21=
PLAYORDER=
